<svg width="871" height="685" viewBox="0 0 871 685" fill="none" xmlns="http://www.w3.org/2000/svg">
<mask id="mask0_7_19584" style="mask-type:alpha" maskUnits="userSpaceOnUse" x="229" y="214" width="436" height="471">
<path d="M286.757 215.915L633.325 298.608C653.449 303.409 666.888 322.395 664.727 342.971L632.227 652.435C630.191 671.825 612.82 685.894 593.43 683.857C593.217 683.835 593.005 683.811 592.793 683.785L260.463 642.767C242.524 640.553 229.155 625.147 229.49 607.076L236.018 255.213C236.44 232.47 255.219 214.375 277.962 214.797C280.925 214.852 283.874 215.227 286.757 215.915Z" fill="white"/>
</mask>
<g mask="url(#mask0_7_19584)">
<path d="M286.757 215.915L633.325 298.608C653.449 303.409 666.888 322.395 664.727 342.971L632.227 652.435C630.191 671.825 612.82 685.894 593.43 683.857C593.217 683.835 593.005 683.811 592.793 683.785L260.463 642.767C242.524 640.553 229.155 625.147 229.49 607.076L236.018 255.213C236.44 232.47 255.219 214.375 277.962 214.797C280.925 214.852 283.874 215.227 286.757 215.915Z" fill="#F2FF9E"/>
<path fill-rule="evenodd" clip-rule="evenodd" d="M228.901 592.319L434.829 446.112L507.116 501.587L407.512 671.798L234.364 655.407C231.542 636.861 229.721 622.852 228.901 613.38C228.08 603.908 228.08 596.887 228.901 592.319Z" fill="#CEDF62"/>
</g>
<path d="M425.167 250.204C425.17 250.319 425.164 250.435 425.148 250.552L415.852 317.977C420.746 319.402 424.323 323.921 424.323 329.276C424.323 335.736 419.117 340.98 412.672 341.043L407.027 381.989C411.704 383.545 415.077 387.957 415.077 393.157C415.077 399.469 410.107 404.621 403.867 404.912L393.627 479.18C393.469 480.329 392.408 481.133 391.259 480.974C390.109 480.816 389.306 479.755 389.464 478.606L399.7 404.361C394.966 402.838 391.541 398.397 391.541 393.157C391.541 386.807 396.572 381.631 402.866 381.398L408.527 340.336C404.012 338.691 400.787 334.36 400.787 329.276C400.787 323.075 405.584 317.994 411.67 317.541L420.985 249.978C420.997 249.886 421.016 249.796 421.039 249.709L302.448 293.553L377.677 237.236L464.253 257.83L499.556 334.319L425.167 250.204ZM600.94 411.495L604.936 412.798L520.256 672.449L516.26 671.146L600.94 411.495ZM331.447 520.92L230.161 591.526L236.045 250.265L253.536 297.922L331.447 520.92Z" fill="#B1BF58"/>
<mask id="mask1_7_19584" style="mask-type:alpha" maskUnits="userSpaceOnUse" x="395" y="7" width="182" height="253">
<path d="M486.174 207.856L486.14 259.735L397.377 254.903L396.479 147.119C396.161 144.434 395.998 141.701 395.998 138.931V76.5797C395.998 38.5137 426.856 7.65515 464.922 7.65515H507.251C545.317 7.65515 576.176 38.5137 576.176 76.5797V138.931C576.176 176.997 545.317 207.856 507.251 207.856H486.174Z" fill="white"/>
</mask>
<g mask="url(#mask1_7_19584)">
<path d="M473.295 206.744L464.253 257.83L377.677 237.657L395.509 131.354C395.663 128.655 395.976 125.936 396.457 123.208L407.284 61.8036C413.895 24.3159 449.643 -0.715315 487.131 5.89478L528.816 13.2451C566.304 19.8552 591.335 55.6035 584.725 93.0912L573.898 154.495C567.288 191.983 531.54 217.014 494.052 210.404L473.295 206.744Z" fill="#81A6FF"/>
</g>
<mask id="mask2_7_19584" style="mask-type:alpha" maskUnits="userSpaceOnUse" x="395" y="7" width="181" height="253">
<path d="M485.85 207.828L485.816 259.708L397.052 254.875L396.154 147.092C395.837 144.407 395.673 141.674 395.673 138.904V76.5526C395.673 38.4866 426.532 7.62805 464.598 7.62805H506.927C544.993 7.62805 575.851 38.4866 575.851 76.5526V138.904C575.851 176.97 544.993 207.828 506.927 207.828H485.85Z" fill="white"/>
</mask>
<g mask="url(#mask2_7_19584)">
<path d="M472.97 206.717L463.928 257.803L377.352 237.63L395.185 131.327C395.338 128.628 395.652 125.909 396.133 123.18L406.96 61.7765C413.57 24.2888 449.318 -0.742415 486.806 5.86768L528.492 13.218C565.979 19.8281 591.011 55.5764 584.401 93.0641L573.573 154.468C566.963 191.956 531.215 216.987 493.727 210.377L472.97 206.717Z" fill="#FF8181"/>
<path fill-rule="evenodd" clip-rule="evenodd" d="M407.096 75.0115L572.263 14.9126L475.87 -6.10095L399.531 8.54639L407.096 75.0115Z" fill="#111827"/>
</g>
<path d="M371.613 31.6137L366.68 30.5652C342.159 25.3533 318.057 41.0056 312.845 65.5257L311.797 70.4587C306.585 94.9788 322.237 119.081 346.757 124.293L351.69 125.342C376.21 130.554 400.313 114.901 405.525 90.3812L406.573 85.4482C411.785 60.9281 396.133 36.8256 371.613 31.6137Z" fill="#111827"/>
<path fill-rule="evenodd" clip-rule="evenodd" d="M494.512 166.631L508.965 178.193C511.892 180.535 515.355 182.115 519.042 182.792L529.054 184.631C532.254 185.219 535.559 184.627 538.356 182.963L549.568 176.297L541.117 167.846C539.565 166.294 537.354 165.597 535.193 165.978L531.496 166.631L524.456 162.471C523.036 161.631 521.355 161.344 519.736 161.663L494.512 166.631Z" fill="#111827"/>
<path d="M583.19 98.1266C571.352 93.9835 558.538 95.4646 543.892 101.115" stroke="#111827" stroke-width="3" stroke-linecap="round" stroke-linejoin="round"/>
<path fill-rule="evenodd" clip-rule="evenodd" d="M517.679 154.305L544.939 159.591C547.217 160.033 549.423 158.544 549.864 156.265C549.989 155.624 549.962 154.964 549.787 154.335C546.613 142.964 544.889 134.109 544.614 127.772C544.289 120.263 542.888 117.181 540.412 118.526L541.583 98.3784L539.481 98.3784C529.597 122.603 524.132 136.472 523.086 139.985C522.436 142.171 513.576 143.189 512.674 147.525C512.508 148.323 512.763 149.468 513.44 150.96C514.228 152.696 515.807 153.943 517.679 154.305Z" fill="#C55858"/>
<path d="M620.572 248.848L606.216 246.057L567.714 444.135L582.07 446.926L620.572 248.848Z" fill="#8C8C8C"/>
<path d="M602.54 311.383L599.509 310.794C589.939 308.933 580.674 315.183 578.814 324.753L556.63 438.881C554.769 448.45 561.019 457.716 570.589 459.576L573.62 460.165C583.189 462.025 592.455 455.776 594.315 446.206L616.499 332.078C618.359 322.508 612.11 313.243 602.54 311.383Z" fill="#111827"/>
<path fill-rule="evenodd" clip-rule="evenodd" d="M616.929 220.624L619.96 221.213C629.529 223.073 635.779 232.339 633.919 241.908L630.901 257.435C630.009 262.025 626.078 265.4 621.406 265.589C617.131 265.761 613.496 265.556 610.503 264.974C607.37 264.365 603.565 263.076 599.087 261.106C594.772 259.209 592.347 254.576 593.247 249.949L596.234 234.583C598.094 225.013 607.359 218.764 616.929 220.624Z" fill="#111827"/>
<path fill-rule="evenodd" clip-rule="evenodd" d="M542.96 204.354C525.187 175.912 523.955 142.544 533.593 113.256C541.03 90.6583 554.2 70.4709 575.817 56.9634C592.739 46.3893 610.751 42.3529 628.995 41.8101C639.936 41.4846 651.096 41.4051 661.776 44.752C672.551 48.1288 686.543 54.6026 696.238 61.5629C707.907 69.9399 714.877 79.5327 722.695 92.0434C732.386 107.552 737.419 124.845 738.686 141.835C739.357 150.835 737.788 162.787 736.164 171.254C733.712 184.043 729.802 192.993 722.716 204.455C714.575 217.621 703.878 230.661 689.837 239.434C679.232 246.061 668.107 250.901 656.733 253.207C639.878 256.624 622.523 255.063 605.88 250.265C594.794 247.069 582.171 241.609 572.258 235.135C560.095 227.192 551.108 217.393 542.96 204.354ZM555.348 196.884C582.247 239.932 638.678 253.194 681.39 226.505C724.101 199.816 736.92 143.282 710.02 100.235C683.121 57.1866 626.69 43.9252 583.979 70.6143C541.267 97.3034 528.449 153.836 555.348 196.884Z" fill="#898989"/>
<mask id="mask3_7_19584" style="mask-type:alpha" maskUnits="userSpaceOnUse" x="538" y="55" width="188" height="186">
<path d="M632.212 240.241C652.69 240.241 671.849 232.773 687.145 221.328C690.874 218.538 694.671 215.938 697.969 212.729C710.013 201.011 718.303 186.363 722.616 170.059C724.461 163.088 725.447 155.732 725.447 148.023C725.447 106.005 696.095 72.5237 657.238 61.4011C648.995 59.0416 641.224 55.8043 632.212 55.8043C602.645 55.8043 577.383 70.7802 560.302 92.0152C547.636 107.762 538.978 126.337 538.978 148.023C538.978 165.71 544.857 182.313 553.585 196.349C569.991 222.73 598.602 240.241 632.212 240.241Z" fill="white"/>
</mask>
<g mask="url(#mask3_7_19584)">
<path d="M554.007 196.891C564.858 214.257 581.344 226.547 599.156 233.454C603.498 235.138 607.715 236.981 612.184 238.077C628.504 242.081 645.32 241.349 661.431 236.367C668.321 234.237 675.081 231.176 681.619 227.09C717.252 204.824 730.092 162.189 718.933 123.343C716.566 115.102 715.194 106.797 710.418 99.1545C694.75 74.0802 668.663 60.5928 641.603 57.3601C621.537 54.963 601.196 57.4634 582.806 68.9553C567.806 78.3281 556.841 92.112 549.564 106.952C535.885 134.845 536.196 168.388 554.007 196.891Z" fill="white"/>
<path opacity="0.65332" fill-rule="evenodd" clip-rule="evenodd" d="M649.214 133.207C645.201 131.509 642.187 130.578 637.734 129.632C633.096 128.646 628.625 128.458 624.04 128.405C618.689 128.344 613.565 129.323 608.286 130.532C603.797 131.561 597.058 134.003 588.07 137.858C594.129 144.828 598.889 149.654 602.348 152.336C607.627 156.429 612.617 160.31 618.778 162.691C621.32 163.673 624.401 164.757 627.342 165.58L578.961 237.186L540.541 183.811L678.805 38.809L700.093 57.9046L649.214 133.207ZM663.804 141.518C661.875 140.083 659.798 138.716 657.654 137.457L706.886 65.7903L712.201 67.4153L663.804 141.518ZM646.837 167.497L592.066 251.358L587.377 239.76L637.143 167.315C638.475 167.429 639.816 167.51 641.195 167.583C643.079 167.683 644.96 167.645 646.837 167.497Z" fill="#E0E0E0"/>
<path d="M649.375 169.553C646.544 169.869 643.868 169.939 641.139 169.768C637.838 169.562 635.428 169.344 633.166 168.992L629.081 189.621C628.858 190.745 627.751 191.459 626.607 191.218C625.463 190.976 624.717 189.869 624.939 188.746L629.015 168.167C625.732 167.369 621.828 166.072 617.939 164.557C616.206 163.881 614.544 163.1 612.86 162.174L600.691 172.415C599.813 173.153 598.48 173.038 597.714 172.158C596.948 171.277 597.038 169.965 597.916 169.226L609.046 159.86C607.856 159.076 606.626 158.214 605.328 157.26C604.072 156.338 603.126 155.618 600.81 153.837C597.178 151.044 592.27 146.134 586.036 139.077C585.087 138.004 585.455 136.351 586.764 135.808C595.856 132.036 602.698 129.65 607.345 128.644C614.131 127.175 618.737 126.544 623.633 126.648C629.573 126.774 633.573 127.121 637.806 128.049C642.525 129.083 645.717 130.098 649.981 131.926C655.188 134.158 660.476 137.17 664.943 140.474C668.858 143.369 674.454 148.746 681.789 156.643C682.77 157.699 682.435 159.373 681.128 159.94C674.381 162.866 669.314 164.832 665.891 165.846C661.233 167.225 657.279 168.241 653.684 168.906L659.118 180.514C659.61 181.565 659.153 182.794 658.097 183.258C657.041 183.723 655.786 183.248 655.294 182.196L649.375 169.553ZM664.605 161.858C667.378 161.037 671.415 159.506 676.691 157.271C670.512 150.728 665.752 146.224 662.456 143.786C658.262 140.685 653.267 137.839 648.364 135.738C644.355 134.019 641.425 133.087 636.969 132.111C633.066 131.255 629.31 130.929 623.626 130.808C619.136 130.713 614.816 131.305 608.327 132.71C604.429 133.554 598.685 135.504 591.135 138.555C596.279 144.257 600.367 148.27 603.363 150.574C605.653 152.336 606.584 153.043 607.805 153.94C612.174 157.149 615.647 159.219 619.422 160.69C623.535 162.293 627.661 163.638 630.885 164.345C633.961 165.019 636.696 165.327 641.322 165.615C648.004 166.032 654.527 164.842 664.605 161.858ZM632.655 156.795C630.025 156.218 627.079 153.312 625.863 151.029C624.829 149.089 625.014 147.014 625.5 144.655C625.992 142.27 627.18 140.547 628.918 139.207C630.922 137.662 633.62 136.716 636.226 137.288C639.19 137.937 643.071 139.333 644.179 142.053C644.889 143.796 645.65 147.228 645.236 149.233C644.834 151.187 643.223 153.146 641.939 154.429C639.849 156.517 635.668 157.455 632.655 156.795Z" fill="#111827"/>
</g>
<path fill-rule="evenodd" clip-rule="evenodd" d="M458.099 98.5646C460.168 108.937 468.677 116.531 483.624 121.346C498.572 126.161 509.857 124.709 517.479 116.989C511.972 104.62 504.067 96.8212 493.764 93.5925C483.461 90.3638 471.572 92.0211 458.099 98.5646Z" fill="white"/>
<path fill-rule="evenodd" clip-rule="evenodd" d="M496.897 116.599C499.336 116.77 501.736 115.604 503.167 113.607C504.046 112.38 504.464 110.806 504.581 109.132C504.702 107.413 504.54 105.862 503.803 104.503C502.654 102.383 500.41 100.835 498.011 100.668C495.903 100.52 493.788 101.025 492.37 102.56C491.14 103.891 490.47 106.092 490.327 108.135C490.186 110.156 490.562 112.458 491.574 113.94C492.764 115.684 494.769 116.45 496.897 116.599Z" fill="#111827"/>
<path fill-rule="evenodd" clip-rule="evenodd" d="M457.742 98.6301C474.378 100.287 487.269 102.515 496.417 105.312C505.564 108.11 512.746 112.022 517.963 117.048C515.494 104.373 507.317 96.0353 493.431 92.0336C479.545 88.0318 467.649 90.2307 457.742 98.6301Z" fill="#C55858"/>
<path fill-rule="evenodd" clip-rule="evenodd" d="M522.516 112.89L484.001 78.3738L486.523 65.3453L533.593 109.474C532.699 113.099 529.035 115.313 525.41 114.419C524.335 114.154 523.341 113.629 522.516 112.89Z" fill="#111827"/>
<path fill-rule="evenodd" clip-rule="evenodd" d="M377.677 237.236L359.748 182.206C352.082 158.676 357.139 132.854 373.115 113.954L407.096 73.7507L377.677 237.236Z" fill="#111827"/>
<mask id="mask4_7_19584" style="mask-type:alpha" maskUnits="userSpaceOnUse" x="435" y="315" width="217" height="185">
<path d="M435.666 448.334L566.549 328.212C570.289 324.779 574.867 322.392 579.823 321.291L577.302 332.218L623.06 316.569C628.995 314.54 635.478 317.521 637.8 323.347C638.255 324.489 638.806 325.706 639.452 326.997C643.993 336.063 643.993 344.256 639.452 351.578C646.088 353.67 649.93 358.726 650.978 366.746C652.025 374.765 650.105 381.041 645.215 385.574C653.116 400.298 647.585 418.639 632.861 426.54C632.026 426.988 631.171 427.396 630.299 427.764L627.403 428.983L523.676 463.502L503.769 499.066L435.666 448.334Z" fill="white"/>
</mask>
<g mask="url(#mask4_7_19584)">
<path d="M435.666 448.334L566.549 328.212C570.289 324.779 574.867 322.392 579.823 321.291L577.302 332.218L623.06 316.569C628.995 314.54 635.478 317.521 637.8 323.347C638.255 324.489 638.806 325.706 639.452 326.997C643.993 336.063 643.993 344.256 639.452 351.578C646.088 353.67 649.93 358.726 650.978 366.746C652.025 374.765 650.105 381.041 645.215 385.574C653.116 400.298 647.585 418.639 632.861 426.54C632.026 426.988 631.171 427.396 630.299 427.764L627.403 428.983L523.676 463.502L503.769 499.066L435.666 448.334Z" fill="#FF8181"/>
<path fill-rule="evenodd" clip-rule="evenodd" d="M580.664 330.957L549.139 344.406C555.526 335.095 561.131 328.511 565.954 324.653C570.777 320.795 576.381 318.413 582.765 317.508L580.664 330.957Z" fill="#C55858"/>
<path d="M644.207 385.423C644.765 385.006 645.555 385.121 645.971 385.679C646.388 386.237 646.273 387.027 645.715 387.443C642.079 390.158 637.73 392.188 632.678 393.535C632.005 393.714 631.314 393.314 631.135 392.642C630.955 391.969 631.355 391.278 632.028 391.099C636.781 389.831 640.838 387.938 644.207 385.423ZM637.934 350.886C638.5 350.481 639.288 350.611 639.694 351.177C640.099 351.743 639.969 352.531 639.403 352.936C635.628 355.64 631.179 357.577 626.066 358.751C625.387 358.906 624.711 358.482 624.555 357.804C624.399 357.125 624.823 356.449 625.502 356.293C630.3 355.192 634.441 353.389 637.934 350.886Z" fill="#C55858"/>
</g>
<path fill-rule="evenodd" clip-rule="evenodd" d="M399.531 133.429C416.707 133.429 430.631 120.07 430.631 103.59C430.631 87.1102 416.707 73.7507 399.531 73.7507C382.355 73.7507 368.431 87.1102 368.431 103.59C368.431 116.47 376.937 127.445 388.853 131.624C392.183 132.792 395.779 133.429 399.531 133.429Z" fill="#FF8181"/>
<mask id="mask5_7_19584" style="mask-type:alpha" maskUnits="userSpaceOnUse" x="365" y="125" width="50" height="64">
<path d="M381.496 127.947C383.946 129.448 386.599 130.806 389.526 131.896C387.26 132.311 385.081 133.355 383.267 135.039C373.914 143.722 370.101 156.85 373.349 169.192L373.885 171.23C374.315 172.865 375.046 174.406 376.039 175.774C380.466 181.87 388.996 183.223 395.091 178.796L395.62 178.412C406.448 170.549 410.442 156.267 405.263 143.928L403.352 139.374C402.783 138.019 401.981 136.774 400.981 135.697C399.649 134.263 398.06 133.21 396.351 132.545C397.095 129.02 397.562 126.807 397.75 125.907C400.772 126.886 403.594 128.628 405.909 131.122C407.445 132.777 408.679 134.69 409.552 136.772L411.463 141.325C417.85 156.543 412.925 174.155 399.571 183.853L399.043 184.237C389.942 190.846 377.207 188.826 370.598 179.725C369.115 177.683 368.024 175.382 367.382 172.941L366.846 170.903C362.967 156.162 367.52 140.482 378.692 130.111C379.575 129.291 380.514 128.57 381.496 127.947Z" fill="white"/>
</mask>
<g mask="url(#mask5_7_19584)">
<path d="M381.496 127.947C383.946 129.448 386.599 130.806 389.526 131.896C387.26 132.311 385.081 133.355 383.267 135.039C373.914 143.722 370.101 156.85 373.349 169.192L373.885 171.23C374.315 172.865 375.046 174.406 376.039 175.774C380.466 181.87 388.996 183.223 395.091 178.796L395.62 178.412C406.448 170.549 410.442 156.267 405.263 143.928L403.352 139.374C402.783 138.019 401.981 136.774 400.981 135.697C399.649 134.263 398.06 133.21 396.351 132.545C397.095 129.02 397.562 126.807 397.75 125.907C400.772 126.886 403.594 128.628 405.909 131.122C407.445 132.777 408.679 134.69 409.552 136.772L411.463 141.325C417.85 156.543 412.925 174.155 399.571 183.853L399.043 184.237C389.942 190.846 377.207 188.826 370.598 179.725C369.115 177.683 368.024 175.382 367.382 172.941L366.846 170.903C362.967 156.162 367.52 140.482 378.692 130.111C379.575 129.291 380.514 128.57 381.496 127.947Z" fill="#F2FF9E"/>
<path fill-rule="evenodd" clip-rule="evenodd" d="M368.847 113.256L399.527 110.314L383.977 207.397L356.659 200.673L368.847 113.256Z" fill="#CEDF62"/>
</g>
<path fill-rule="evenodd" clip-rule="evenodd" d="M196.519 54.4182V117.815L254.533 104.411L200.87 135.566L254.533 154.404L196.519 147.521L200.87 204.035L178.389 152.231L147.207 193.891L167.512 143.536C126.902 129.77 106.597 122.887 106.597 122.887C106.597 122.887 126.902 123.732 167.512 125.423L147.207 80.8638L178.389 113.83L196.519 54.4182ZM762.023 428.288L759.114 344.997L696.988 373.114L746.893 324.219L685.602 279.039L757.751 305.969L749.458 231.92L781.286 298.952L820.225 242.791L795.935 309.877C845.978 312.351 871 313.587 871 313.587C871 313.587 846.255 320.283 796.766 333.675L825.411 391.288L783.047 349.403L762.023 428.288Z" fill="#5485EC"/>
<path fill-rule="evenodd" clip-rule="evenodd" d="M112.379 365.397L128.319 404.887L97.4387 400.818L127.507 415.768C105.081 432.437 93.8673 440.772 93.8673 440.772C93.8673 440.772 107.685 435.653 135.32 425.416L146.191 461.023L144.882 425.341L179.238 443.208L152.537 414.988L186.502 393.554L149.705 406.738L164.938 366.926L139.724 399.165L112.379 365.397Z" fill="#111827"/>
<path d="M129.005 496.116C175.19 483.74 202.598 436.268 190.223 390.082C177.848 343.897 130.375 316.489 84.1896 328.864C38.0042 341.239 10.5958 388.712 22.9711 434.897C35.3464 481.083 82.8193 508.491 129.005 496.116Z" fill="#FF8181"/>
<path d="M84.6345 423.185L86.6847 430.836L79.6374 432.725L81.175 438.463L72.1142 440.891L70.5765 435.153L45.7096 441.816L43.6594 434.164L62.6726 405.655L71.7334 403.227L77.5872 425.073L84.6345 423.185ZM53.425 431.548L68.5264 427.501L65.1004 414.715L53.425 431.548ZM111.362 430.914C97.3677 434.664 88.9966 430.001 85.8539 418.272C82.7247 406.594 87.6563 398.421 101.65 394.671C115.594 390.935 124.015 395.584 127.131 407.212C130.26 418.891 125.305 427.178 111.362 430.914ZM109.325 423.313C117.278 421.182 119.837 416.234 118.07 409.64C116.317 403.096 111.64 400.141 103.687 402.272C95.7336 404.403 93.1478 409.25 94.9148 415.845C96.6952 422.489 101.372 425.444 109.325 423.313ZM172.223 399.716L174.273 407.367L167.225 409.256L168.763 414.994L159.702 417.422L158.165 411.683L133.298 418.346L131.247 410.695L150.261 382.185L159.321 379.758L165.175 401.604L172.223 399.716ZM141.013 408.078L156.114 404.032L152.688 391.246L141.013 408.078Z" fill="white"/>
<path fill-rule="evenodd" clip-rule="evenodd" d="M490.158 135.046C488.349 134.628 487.891 133.105 488.204 131.748C488.517 130.391 489.484 129.714 491.293 130.132C493.102 130.55 493.56 132.072 493.247 133.429C492.934 134.786 491.968 135.464 490.158 135.046ZM507.81 134.205C506 133.788 505.542 133.105 505.855 131.748C506.169 130.391 507.135 128.874 508.944 129.291C510.753 129.709 511.212 131.232 510.899 132.589C510.585 133.946 509.619 134.623 507.81 134.205ZM500.245 143.451C498.436 143.034 497.977 141.511 498.29 140.154C498.604 138.797 499.57 138.12 501.379 138.537C503.189 138.955 503.647 140.058 503.334 141.415C503.02 142.772 502.054 143.869 500.245 143.451ZM483.434 145.973C481.625 145.555 480.746 144.873 481.059 143.516C481.373 142.159 482.759 140.641 484.568 141.059C486.378 141.477 486.416 142.579 486.103 143.936C485.789 145.293 485.243 146.391 483.434 145.973ZM471.666 131.684C469.857 131.266 468.978 130.163 469.292 128.806C469.605 127.449 470.992 126.352 472.801 126.77C474.61 127.187 475.068 129.131 474.755 130.487C474.442 131.844 473.476 132.101 471.666 131.684Z" fill="#C55858"/>
</svg>
